<?xml version="1.0" encoding="utf-8"?>
<!-- Generator: Adobe Illustrator 24.3.0, SVG Export Plug-In . SVG Version: 6.00 Build 0)  -->
<svg version="1.1" id="Слой_1" xmlns="http://www.w3.org/2000/svg" xmlns:xlink="http://www.w3.org/1999/xlink" x="0px" y="0px"
	 viewBox="0 0 64 64" style="enable-background:new 0 0 64 64;" xml:space="preserve">
<style type="text/css">
	.st0{fill:url(#SVGID_1_);}
	.st1{fill:url(#SVGID_2_);}
	.st2{fill:none;}
	.st3{fill:#3399FF;}
	.st4{font-family:'ArialMT';}
	.st5{font-size:6px;}
</style>
<linearGradient id="SVGID_1_" gradientUnits="userSpaceOnUse" x1="31.1099" y1="-8" x2="31.1099" y2="31.3422" gradientTransform="matrix(1 0 0 1 0 24)">
	<stop  offset="0" style="stop-color:#6DC7FF"/>
	<stop  offset="1" style="stop-color:#E6ABFF"/>
</linearGradient>
<path class="st0" d="M25,56c0-0.4,0-2,0-3.5V51c-6.7,0.9-8.4-3.8-8.4-3.8c-0.9-2.4-2.2-3-2.3-3.1L14.2,44c-0.5-0.3-1.7-1.2-1.3-2.3
	c0.3-1,1.5-1.1,2.1-1.1c3.1,0.2,4.6,3,4.7,3.1c1.6,2.7,4,2.4,5.5,1.8c0.1-0.7,0.4-1.3,0.7-1.9c-5-0.9-10.6-3.5-10.6-13.1
	c0-2.6,0.8-5,2.4-6.9c-0.4-1.2-0.8-3.7,0.4-6.8l0.2-0.4l0.5-0.1c0.4-0.1,2.7-0.6,7.4,2.4c1.9-0.5,4-0.7,6.1-0.8
	c2.1,0,4.2,0.3,6.1,0.8c4.7-3.1,6.9-2.6,7.4-2.4l0.5,0.1l0.2,0.4c1.2,3.1,0.8,5.6,0.5,6.8c1.6,2,2.4,4.3,2.4,6.9
	c0,9.6-5.6,12.2-10.6,13.1c0.6,1.1,0.9,2.4,0.9,3.9c0,1.7,0,7.2,0,8.4h-2c0-1.2,0-6.7,0-8.4c0-2.4-0.9-3.5-1.3-3.9l-1.7-1.5l2.3-0.3
	c5.2-0.6,10.5-2.4,10.5-11.3c0-2.3-0.8-4.4-2.3-6L44.8,24l0.2-0.6c0.2-0.4,0.9-2.4,0-5.3c-0.8,0-2.6,0.4-5.6,2.4L38.7,21l-0.4-0.1
	c-1.9-0.5-3.9-0.8-6-0.8s-4.1,0.3-6,0.8L25.8,21l-0.4-0.3c-3-2-4.8-2.4-5.6-2.4c-0.9,2.9-0.2,4.9,0,5.3l0.2,0.6l-0.4,0.5
	c-1.5,1.7-2.3,3.7-2.3,6c0,9,5.3,10.8,10.5,11.4l2.3,0.3l-1.7,1.5c-0.4,0.3-1,1.1-1.3,2.7L27,47l-0.5,0.2c-1.3,0.6-5.8,2.2-8.5-2.5
	c0,0-0.5-0.9-1.5-1.6c0.6,0.6,1.4,1.7,2.1,3.3c0.1,0.2,1.4,3.6,7.3,2.3l1.2-0.3v4c0,1.5,0,3.1,0,3.4L25,56z"/>
<linearGradient id="SVGID_2_" gradientUnits="userSpaceOnUse" x1="32" y1="-19" x2="32" y2="35.1669" gradientTransform="matrix(1 0 0 1 0 24)">
	<stop  offset="0" style="stop-color:#1A6DFF"/>
	<stop  offset="1" style="stop-color:#C822FF"/>
</linearGradient>
<path class="st1" d="M32,58C17.7,58,6,46.3,6,32S17.7,6,32,6s26,11.7,26,26S46.3,58,32,58z M32,8C18.8,8,8,18.8,8,32s10.8,24,24,24
	s24-10.8,24-24S45.2,8,32,8z"/>
<rect x="18.8" y="26.4" class="st2" width="26.5" height="16.3"/>
<text transform="matrix(1 0 0 1 24.5073 30.2461)" class="st3 st4 st5">SNVS</text>
<text transform="matrix(1 0 0 1 22.6884 34.9767)" class="st3 st4 st5">KOMAL</text>
</svg>
